<svg width="997" height="419" viewBox="0 0 997 419" fill="none" xmlns="http://www.w3.org/2000/svg">
<path d="M324.48 418C-139.963 249.008 -75.1448 158.289 324.48 0V70.5C-9.9165 183.906 -17.9587 244.681 324.48 347.5V418Z" fill="url(#paint0_linear_4_36)"/>
<path d="M671 0.132919C1136.03 167.502 1071.53 258.447 672.46 418.13L672.213 347.631C1006.21 233.058 1014.04 172.255 671.246 70.6325L671 0.132919Z" fill="url(#paint1_linear_4_36)"/>
<path d="M551.968 257.152C546.165 257.152 540.96 256.128 536.352 254.08C531.744 251.947 528.075 249.088 525.344 245.504C522.699 241.92 521.248 237.952 520.992 233.6H539.04C539.381 236.331 540.704 238.592 543.008 240.384C545.397 242.176 548.341 243.072 551.84 243.072C555.253 243.072 557.899 242.389 559.776 241.024C561.739 239.659 562.72 237.909 562.72 235.776C562.72 233.472 561.525 231.765 559.136 230.656C556.832 229.461 553.12 228.181 548 226.816C542.709 225.536 538.357 224.213 534.944 222.848C531.616 221.483 528.715 219.392 526.24 216.576C523.851 213.76 522.656 209.963 522.656 205.184C522.656 201.259 523.765 197.675 525.984 194.432C528.288 191.189 531.531 188.629 535.712 186.752C539.979 184.875 544.971 183.936 550.688 183.936C559.136 183.936 565.877 186.069 570.912 190.336C575.947 194.517 578.72 200.192 579.232 207.36H562.08C561.824 204.544 560.629 202.325 558.496 200.704C556.448 198.997 553.675 198.144 550.176 198.144C546.933 198.144 544.416 198.741 542.624 199.936C540.917 201.131 540.064 202.795 540.064 204.928C540.064 207.317 541.259 209.152 543.648 210.432C546.037 211.627 549.749 212.864 554.784 214.144C559.904 215.424 564.128 216.747 567.456 218.112C570.784 219.477 573.643 221.611 576.032 224.512C578.507 227.328 579.787 231.083 579.872 235.776C579.872 239.872 578.72 243.541 576.416 246.784C574.197 250.027 570.955 252.587 566.688 254.464C562.507 256.256 557.6 257.152 551.968 257.152Z" fill="white"/>
<path d="M474.695 257.152C467.868 257.152 461.724 255.659 456.263 252.672C450.802 249.6 446.492 245.291 443.335 239.744C440.263 234.197 438.727 227.797 438.727 220.544C438.727 213.291 440.306 206.891 443.463 201.344C446.706 195.797 451.1 191.531 456.647 188.544C462.194 185.472 468.38 183.936 475.207 183.936C482.034 183.936 488.22 185.472 493.767 188.544C499.314 191.531 503.666 195.797 506.823 201.344C510.066 206.891 511.687 213.291 511.687 220.544C511.687 227.797 510.023 234.197 506.695 239.744C503.452 245.291 499.015 249.6 493.383 252.672C487.836 255.659 481.607 257.152 474.695 257.152ZM474.695 241.536C477.938 241.536 480.967 240.768 483.783 239.232C486.684 237.611 488.988 235.221 490.695 232.064C492.402 228.907 493.255 225.067 493.255 220.544C493.255 213.803 491.463 208.64 487.879 205.056C484.38 201.387 480.071 199.552 474.951 199.552C469.831 199.552 465.522 201.387 462.023 205.056C458.61 208.64 456.903 213.803 456.903 220.544C456.903 227.285 458.567 232.491 461.895 236.16C465.308 239.744 469.575 241.536 474.695 241.536Z" fill="white"/>
<path d="M425.502 161.28V256H407.582V161.28H425.502Z" fill="white"/>
<path d="M373.752 196.096C376.056 192.341 379.043 189.397 382.712 187.264C386.467 185.131 390.733 184.064 395.512 184.064V202.88H390.776C385.144 202.88 380.877 204.203 377.976 206.848C375.16 209.493 373.752 214.101 373.752 220.672V256H355.832V185.088H373.752V196.096Z" fill="white"/>
<path d="M264.474 220.288C264.474 213.12 265.882 206.763 268.698 201.216C271.599 195.669 275.482 191.403 280.346 188.416C285.295 185.429 290.799 183.936 296.858 183.936C302.149 183.936 306.757 185.003 310.682 187.136C314.693 189.269 317.893 191.957 320.282 195.2V185.088H338.33V256H320.282V245.632C317.978 248.96 314.778 251.733 310.682 253.952C306.671 256.085 302.021 257.152 296.73 257.152C290.757 257.152 285.295 255.616 280.346 252.544C275.482 249.472 271.599 245.163 268.698 239.616C265.882 233.984 264.474 227.541 264.474 220.288ZM320.282 220.544C320.282 216.192 319.429 212.48 317.722 209.408C316.015 206.251 313.711 203.861 310.81 202.24C307.909 200.533 304.794 199.68 301.466 199.68C298.138 199.68 295.066 200.491 292.25 202.112C289.434 203.733 287.13 206.123 285.338 209.28C283.631 212.352 282.778 216.021 282.778 220.288C282.778 224.555 283.631 228.309 285.338 231.552C287.13 234.709 289.434 237.141 292.25 238.848C295.151 240.555 298.223 241.408 301.466 241.408C304.794 241.408 307.909 240.597 310.81 238.976C313.711 237.269 316.015 234.88 317.722 231.808C319.429 228.651 320.282 224.896 320.282 220.544Z" fill="white"/>
<path d="M166.48 211.2C166.48 202.411 168.443 194.56 172.368 187.648C176.379 180.651 181.797 175.232 188.624 171.392C195.536 167.467 203.259 165.504 211.792 165.504C221.776 165.504 230.523 168.064 238.032 173.184C245.541 178.304 250.789 185.387 253.776 194.432H233.168C231.12 190.165 228.219 186.965 224.464 184.832C220.795 182.699 216.528 181.632 211.664 181.632C206.459 181.632 201.808 182.869 197.712 185.344C193.701 187.733 190.544 191.147 188.24 195.584C186.021 200.021 184.912 205.227 184.912 211.2C184.912 217.088 186.021 222.293 188.24 226.816C190.544 231.253 193.701 234.709 197.712 237.184C201.808 239.573 206.459 240.768 211.664 240.768C216.528 240.768 220.795 239.701 224.464 237.568C228.219 235.349 231.12 232.107 233.168 227.84H253.776C250.789 236.971 245.541 244.096 238.032 249.216C230.608 254.251 221.861 256.768 211.792 256.768C203.259 256.768 195.536 254.848 188.624 251.008C181.797 247.083 176.379 241.664 172.368 234.752C168.443 227.84 166.48 219.989 166.48 211.2Z" fill="white"/>
<path d="M795.15 239.488L813.07 185.088H832.142L805.902 256H784.142L758.03 185.088H777.23L795.15 239.488Z" fill="#0DCAF0"/>
<path d="M752.502 219.008C752.502 221.568 752.331 223.872 751.99 225.92H700.15C700.577 231.04 702.369 235.051 705.526 237.952C708.683 240.853 712.566 242.304 717.174 242.304C723.83 242.304 728.566 239.445 731.382 233.728H750.71C748.662 240.555 744.737 246.187 738.934 250.624C733.131 254.976 726.006 257.152 717.558 257.152C710.731 257.152 704.587 255.659 699.126 252.672C693.75 249.6 689.526 245.291 686.454 239.744C683.467 234.197 681.974 227.797 681.974 220.544C681.974 213.205 683.467 206.763 686.454 201.216C689.441 195.669 693.622 191.403 698.998 188.416C704.374 185.429 710.561 183.936 717.558 183.936C724.299 183.936 730.315 185.387 735.606 188.288C740.982 191.189 745.121 195.328 748.022 200.704C751.009 205.995 752.502 212.096 752.502 219.008ZM733.942 213.888C733.857 209.28 732.193 205.611 728.95 202.88C725.707 200.064 721.739 198.656 717.046 198.656C712.609 198.656 708.854 200.021 705.782 202.752C702.795 205.397 700.961 209.109 700.278 213.888H733.942Z" fill="#0DCAF0"/>
<path d="M626.064 166.656C635.451 166.656 643.685 168.491 650.768 172.16C657.936 175.829 663.44 181.077 667.28 187.904C671.205 194.645 673.168 202.496 673.168 211.456C673.168 220.416 671.205 228.267 667.28 235.008C663.44 241.664 657.936 246.827 650.768 250.496C643.685 254.165 635.451 256 626.064 256H594.832V166.656H626.064ZM625.424 240.768C634.811 240.768 642.064 238.208 647.184 233.088C652.304 227.968 654.864 220.757 654.864 211.456C654.864 202.155 652.304 194.901 647.184 189.696C642.064 184.405 634.811 181.76 625.424 181.76H612.752V240.768H625.424Z" fill="#0DCAF0"/>
<defs>
<linearGradient id="paint0_linear_4_36" x1="834.699" y1="417.564" x2="833.239" y2="-0.433611" gradientUnits="userSpaceOnUse">
<stop stop-color="#0DCAF0"/>
<stop offset="1" stop-color="#00262D"/>
</linearGradient>
<linearGradient id="paint1_linear_4_36" x1="834.699" y1="417.564" x2="833.239" y2="-0.433611" gradientUnits="userSpaceOnUse">
<stop stop-color="#0DCAF0"/>
<stop offset="1" stop-color="#00262D"/>
</linearGradient>
</defs>
</svg>
