<svg width="674" height="419" viewBox="0 0 674 419" fill="none" xmlns="http://www.w3.org/2000/svg">
<path d="M324.48 418C-139.963 249.008 -75.1448 158.289 324.48 0V70.5C-9.9165 183.906 -17.9587 244.681 324.48 347.5V418Z" fill="url(#paint0_linear_5_53)"/>
<path d="M230.48 209.2C230.48 200.411 232.443 192.56 236.368 185.648C240.379 178.651 245.797 173.232 252.624 169.392C259.536 165.467 267.259 163.504 275.792 163.504C285.776 163.504 294.523 166.064 302.032 171.184C309.541 176.304 314.789 183.387 317.776 192.432H297.168C295.12 188.165 292.219 184.965 288.464 182.832C284.795 180.699 280.528 179.632 275.664 179.632C270.459 179.632 265.808 180.869 261.712 183.344C257.701 185.733 254.544 189.147 252.24 193.584C250.021 198.021 248.912 203.227 248.912 209.2C248.912 215.088 250.021 220.293 252.24 224.816C254.544 229.253 257.701 232.709 261.712 235.184C265.808 237.573 270.459 238.768 275.664 238.768C280.528 238.768 284.795 237.701 288.464 235.568C292.219 233.349 295.12 230.107 297.168 225.84H317.776C314.789 234.971 309.541 242.096 302.032 247.216C294.608 252.251 285.861 254.768 275.792 254.768C267.259 254.768 259.536 252.848 252.624 249.008C245.797 245.083 240.379 239.664 236.368 232.752C232.443 225.84 230.48 217.989 230.48 209.2Z" fill="white"/>
<path d="M348 0.133002C813.031 167.502 748.529 258.447 349.46 418.13L349.213 347.631C683.212 233.058 691.042 172.255 348.246 70.6326L348 0.133002Z" fill="url(#paint1_linear_5_53)"/>
<path d="M473.582 132.784L439.022 277.168H421.486L456.046 132.784H473.582Z" fill="#0DCAF0"/>
<path d="M365.064 164.656C374.451 164.656 382.685 166.491 389.768 170.16C396.936 173.829 402.44 179.077 406.28 185.904C410.205 192.645 412.168 200.496 412.168 209.456C412.168 218.416 410.205 226.267 406.28 233.008C402.44 239.664 396.936 244.827 389.768 248.496C382.685 252.165 374.451 254 365.064 254H333.832V164.656H365.064ZM364.424 238.768C373.811 238.768 381.064 236.208 386.184 231.088C391.304 225.968 393.864 218.757 393.864 209.456C393.864 200.155 391.304 192.901 386.184 187.696C381.064 182.405 373.811 179.76 364.424 179.76H351.752V238.768H364.424Z" fill="#0DCAF0"/>
<defs>
<linearGradient id="paint0_linear_5_53" x1="511.699" y1="417.564" x2="510.239" y2="-0.433477" gradientUnits="userSpaceOnUse">
<stop stop-color="#0DCAF0"/>
<stop offset="1" stop-color="#00262D"/>
</linearGradient>
<linearGradient id="paint1_linear_5_53" x1="511.699" y1="417.564" x2="510.239" y2="-0.433477" gradientUnits="userSpaceOnUse">
<stop stop-color="#0DCAF0"/>
<stop offset="1" stop-color="#00262D"/>
</linearGradient>
</defs>
</svg>
